<svg xmlns="http://www.w3.org/2000/svg" viewBox="224.563 -633.3 339.302 339.3">
  <defs>
    <style>
      .cls-1 {
        fill: #9d9d9d;
      }
    </style>
  </defs>
  <g id="AFLogo" transform="translate(224.577 -633.278)">
    <g id="Ebene_1" data-name="Ebene 1" transform="translate(-0.014 -0.022)">
      <path id="Path_166" data-name="Path 166" class="cls-1" d="M320.479,0a18.851,18.851,0,0,0-18.851,18.851V169.641A131.965,131.965,0,1,1,150.768,39.031V77.292a94.253,94.253,0,1,0,113.1,92.364l.689-150.8a18.851,18.851,0,1,0-37.7,0l-.689,150.8A56.552,56.552,0,1,1,169.619,113.1a18.851,18.851,0,0,0,18.851-18.851v-75.4A18.851,18.851,0,0,0,169.647,0,169.649,169.649,0,1,0,339.288,169.641V18.851A18.851,18.851,0,0,0,320.479,0Z" transform="translate(0.014 0)"/>
    </g>
  </g>
</svg>
