<svg xmlns="http://www.w3.org/2000/svg" viewBox="902.036 -506.491 351.411 351.387">
  <defs>
    <style>
      .cls-1 {
        fill: #9d9d9d;
      }
    </style>
  </defs>
  <g id="potlogo1" transform="translate(902.038 -506.489)">
    <g id="Ebene_1" data-name="Ebene 1" transform="translate(-0.002 -0.002)">
      <path id="Path_1521" data-name="Path 1521" class="cls-1" d="M24.043,178.489a46.027,46.027,0,1,0,65.1,0,46.027,46.027,0,0,0-65.1,0Z" transform="translate(5.043 78.705)"/>
      <path id="Path_1522" data-name="Path 1522" class="cls-1" d="M34.389,154.1a31.4,31.4,0,0,1,8.125-30.335l81.239-81.239A31.4,31.4,0,0,1,154.088,34.4L230.1,54.771a57.234,57.234,0,0,1,10.47-28.908L149.029,1.316a38.763,38.763,0,0,0-37.435,10.043L11.359,111.595A38.763,38.763,0,0,0,1.316,149.029l25.465,95.1a57.177,57.177,0,0,1,28.695-11.421Z" transform="translate(0.002 0.002)"/>
      <path id="Path_1523" data-name="Path 1523" class="cls-1" d="M260.573,82.577l21.759,81.239a31.4,31.4,0,0,1-8.125,30.335L192.968,275.39a31.4,31.4,0,0,1-30.335,8.125L84.051,262.453A57.176,57.176,0,0,1,72.63,291.148l95.1,25.416a38.763,38.763,0,0,0,37.426-10.027L305.395,206.3a38.763,38.763,0,0,0,10.043-37.443L288.981,70.23a57.136,57.136,0,0,1-28.408,12.347Z" transform="translate(34.654 33.504)"/>
      <path id="Path_1524" data-name="Path 1524" class="cls-1" d="M176.874,22.449a46.027,46.027,0,1,0,65.1,0,46.026,46.026,0,0,0-65.1,0Z" transform="translate(77.96 4.26)"/>
      <path id="Path_1525" data-name="Path 1525" class="cls-1" d="M231.8,84.888a57.152,57.152,0,0,1-16.25-32.63L141.1,32.319A28.556,28.556,0,0,0,113.556,39.7L39.7,113.517a28.556,28.556,0,0,0-7.379,27.58l20.5,76.615a57.283,57.283,0,0,1,50.913,50.9l76.615,20.5a28.555,28.555,0,0,0,27.58-7.379l73.852-73.852a28.555,28.555,0,0,0,7.379-27.58l-21.12-78.837A57.177,57.177,0,0,1,231.8,84.888Z" transform="translate(14.954 14.993)"/>
    </g>
  </g>
</svg>
